<svg width="114" height="107" viewBox="0 0 114 107" fill="none" xmlns="http://www.w3.org/2000/svg">
<mask id="mask0_1168_2" style="mask-type:luminance" maskUnits="userSpaceOnUse" x="26" y="0" width="62" height="70">
<path d="M26.751 0H87.1489V69.8H26.751V0Z" fill="white"/>
</mask>
<g mask="url(#mask0_1168_2)">
<path d="M55.9587 69.1478L52.8386 67.4521L56.9982 64.9721L62.1972 61.972L82.9901 49.9682V19.8318L66.8749 10.5672L66.0953 10.9586L61.1561 13.8299L50.6297 19.9622L41.0129 25.5711V44.2289L48.9406 48.9247L51.2794 50.2291L47.1215 52.5787L38.804 47.8812L33.2151 51.1422L44.0014 57.405L47.1215 59.2328L52.8386 55.9701L56.9982 53.4918L58.8173 52.4483L61.5459 50.8813L73.1134 44.2289V25.5711L62.717 19.5692L66.8749 17.0909L77.2713 23.2232V46.5768L59.337 57.0136L57.9077 57.7963L51.2794 61.7111L47.1215 64.059L26.8467 52.3178V49.9682L31.1362 47.4899L36.7234 44.2289V25.5711L33.8648 23.8754L31.1362 22.3101L26.8467 19.8318V17.4822L56.9982 0L61.1561 2.34791L56.9982 4.82792L51.1495 8.21934L33.2151 18.6561L38.804 21.9188L54.008 13.1777L56.9982 11.4803L66.8749 5.741L87.1497 17.4822V52.3178L56.9982 69.8L55.9587 69.1478Z" fill="white"/>
</g>
<path d="M2.99183 85.4976V92.14H0V75.8184H13.8597V78.8553H2.99183V82.4674H10.8679V85.4976H2.99183Z" fill="white"/>
<path d="M18.4814 92.14V75.8184H26.0243C26.9072 75.8184 27.7268 75.9839 28.4831 76.3134C29.2427 76.6395 29.9124 77.0943 30.4954 77.678C31.0768 78.2582 31.5349 78.9338 31.868 79.7048C32.2012 80.4724 32.3678 81.2901 32.3678 82.1597C32.3678 83.2802 32.0963 84.3103 31.5549 85.2501C31.0118 86.1916 30.3088 86.9492 29.4426 87.5244L32.3678 92.14H28.7896L26.4907 88.5011C26.3525 88.5011 26.1976 88.5011 26.0243 88.5011H21.4999V92.14H18.4814ZM21.4999 78.8553V85.4976H26.0243C26.6773 85.4976 27.2737 85.3204 27.8167 84.9625C28.2782 84.6648 28.6497 84.2718 28.9295 83.7852C29.2094 83.2952 29.3493 82.7534 29.3493 82.1597C29.3493 81.5577 29.1994 81.0058 28.9029 80.5008C28.6097 79.9924 28.2115 79.5911 27.7101 79.2967C27.2071 79.0024 26.6457 78.8553 26.0243 78.8553H21.4999Z" fill="white"/>
<path d="M40.0038 92.14H36.9854V75.8184H40.0038V92.14Z" fill="white"/>
<path d="M53.656 89.1098C54.1491 89.1098 54.5722 88.9359 54.9287 88.588C55.2885 88.2368 55.4685 87.8121 55.4685 87.3171C55.4685 86.8054 55.2885 86.3739 54.9287 86.0261C54.5722 85.6749 54.1491 85.4976 53.656 85.4976H51.5438V82.4674H53.656C54.1491 82.4674 54.5722 82.2935 54.9287 81.9457C55.2885 81.5945 55.4685 81.1613 55.4685 80.648C55.4685 80.1496 55.2885 79.7215 54.9287 79.3636C54.5722 79.0074 54.1491 78.8285 53.656 78.8285H49.4048C48.9068 78.8285 48.4853 79.0074 48.1388 79.3636C47.7923 79.7215 47.6191 80.1496 47.6191 80.648H44.6006C44.6006 79.7616 44.8155 78.9539 45.2469 78.2265C45.6817 77.4957 46.2614 76.912 46.9861 76.4739C47.714 76.0374 48.5203 75.8184 49.4048 75.8184H53.656C54.5356 75.8184 55.3418 76.0374 56.0748 76.4739C56.8111 76.912 57.3975 77.4957 57.8339 78.2265C58.2687 78.9539 58.4869 79.7616 58.4869 80.648C58.4869 81.3002 58.367 81.9105 58.1271 82.4808C57.8872 83.0477 57.5641 83.5477 57.1609 83.9792C57.5641 84.4173 57.8872 84.919 58.1271 85.4842C58.367 86.0511 58.4869 86.6615 58.4869 87.3171C58.4869 88.2 58.2687 89.0078 57.8339 89.7386C57.3975 90.471 56.8111 91.0547 56.0748 91.4911C55.3418 91.9243 54.5356 92.14 53.656 92.14H49.4048C48.5203 92.14 47.714 91.9243 46.9861 91.4911C46.2614 91.0547 45.6817 90.471 45.2469 89.7386C44.8155 89.0078 44.6006 88.2 44.6006 87.3171H47.6191C47.6191 87.8121 47.7923 88.2368 48.1388 88.588C48.4853 88.9359 48.9068 89.1098 49.4048 89.1098H53.656Z" fill="white"/>
<path d="M63.1055 75.8184H66.657L70.0486 81.163L71.8078 83.9792L73.9733 87.384V75.8184H76.9918V92.14H73.4136L70.0486 86.802L68.2562 83.9792L66.124 80.5744V92.14H63.1055V75.8184Z" fill="white"/>
<path d="M84.6012 92.14H81.6094V75.8184H87.3665C88.4809 75.8184 89.5287 76.0307 90.5116 76.4538C91.4927 76.8736 92.354 77.4606 93.0969 78.2131C93.8432 78.9673 94.4296 79.8369 94.856 80.8219C95.2825 81.8085 95.4957 82.8604 95.4957 83.9792C95.4957 85.0996 95.2825 86.1532 94.856 87.1432C94.4296 88.1298 93.8432 88.9994 93.0969 89.7519C92.354 90.5061 91.4927 91.0931 90.5116 91.5112C89.5287 91.9309 88.4809 92.14 87.3665 92.14H84.6012ZM84.6012 78.8553V89.1098H87.3665C88.2943 89.1098 89.1489 88.8807 89.9319 88.4208C90.7131 87.9626 91.3328 87.3438 91.7909 86.5679C92.2474 85.7919 92.4772 84.929 92.4772 83.9792C92.4772 83.0343 92.2474 82.1731 91.7909 81.3971C91.3328 80.6179 90.7131 79.9991 89.9319 79.5442C89.1489 79.086 88.2943 78.8553 87.3665 78.8553H84.6012Z" fill="white"/>
<path d="M109.169 89.1098C109.662 89.1098 110.085 88.9359 110.441 88.588C110.801 88.2368 110.981 87.8121 110.981 87.3171C110.981 86.8054 110.801 86.3739 110.441 86.0261C110.085 85.6749 109.662 85.4976 109.169 85.4976H104.918C104.033 85.4976 103.227 85.2819 102.499 84.8488C101.774 84.4123 101.194 83.8287 100.76 83.0962C100.328 82.3654 100.113 81.5493 100.113 80.648C100.113 79.7616 100.328 78.9539 100.76 78.2265C101.194 77.4957 101.774 76.912 102.499 76.4739C103.227 76.0374 104.033 75.8184 104.918 75.8184H109.169C110.065 75.8184 110.876 76.0374 111.601 76.4739C112.329 76.912 112.91 77.4957 113.347 78.2265C113.781 78.9539 114 79.7616 114 80.648H110.981C110.981 80.1496 110.801 79.7248 110.441 79.377C110.085 79.0292 109.662 78.8553 109.169 78.8553H104.918C104.419 78.8553 103.998 79.0292 103.652 79.377C103.305 79.7248 103.132 80.1496 103.132 80.648C103.132 81.1613 103.305 81.5945 103.652 81.9457C103.998 82.2935 104.419 82.4674 104.918 82.4674H109.169C110.065 82.4674 110.876 82.6865 111.601 83.123C112.329 83.5561 112.91 84.138 113.347 84.8688C113.781 85.5963 114 86.4124 114 87.3171C114 88.2 113.781 89.0078 113.347 89.7386C112.91 90.471 112.329 91.0547 111.601 91.4911C110.876 91.9243 110.065 92.14 109.169 92.14H104.918C104.033 92.14 103.227 91.9243 102.499 91.4911C101.774 91.0547 101.194 90.471 100.76 89.7386C100.328 89.0078 100.113 88.2 100.113 87.3171H103.132C103.132 87.8121 103.305 88.2368 103.652 88.588C103.998 88.9359 104.419 89.1098 104.918 89.1098H109.169Z" fill="white"/>
<path d="M41.1296 99.0068V101.134H39.9036L39.8436 100.244H38.3777V105.877L39.2306 106.037V107H35.9256V106.037L36.7785 105.877V100.244H35.3192L35.2526 101.134H34.0332V99.0068H41.1296Z" fill="white"/>
<path d="M51.1548 103.489H48.4562V105.77H51.0282L51.0949 104.813H52.3142V107H46.0107V106.037L46.857 105.877V100.137L46.0107 99.9701V99.0068H52.3009V101.194H51.0749L51.0016 100.244H48.4562V102.251H51.1548V103.489Z" fill="white"/>
<path d="M57.4453 106.037L58.0117 105.957L60.4371 99.0068H62.0697L64.4751 105.957L65.0482 106.037V107H62.3295V106.037L62.8826 105.944L62.5361 104.84H59.9507L59.6042 105.944L60.1573 106.037V107H57.4453V106.037ZM60.3305 103.663H62.1563L61.2634 100.846H61.2301L60.3305 103.663Z" fill="white"/>
<path d="M77.6154 101.087L77.5821 101.08L75.4498 107H74.377L72.2581 101.101L72.2248 101.107L72.3781 104.619V105.877L73.231 106.037V107H69.9326V106.037L70.7789 105.877V100.137L69.9326 99.9701V99.0068H72.8645L74.8901 104.9H74.9234L76.9691 99.0068H79.9143V99.9701L79.0614 100.137V105.877L79.9143 106.037V107H76.6159V106.037L77.4622 105.877V104.619L77.6154 101.087Z" fill="white"/>
</svg>
